<svg width="76" height="52" viewBox="0 0 76 52" fill="none" xmlns="http://www.w3.org/2000/svg">
<path d="M37.9493 0L23.9004 36L52.0999 14.3415L32.5088 24.5847L37.9987 10.2431L37.9493 0Z" fill="#FEFEFE"/>
<path d="M38.4316 9.91354L38.5072 0L45.1742 17.4626L43.0962 18.4887L38.4316 9.91354Z" fill="#2091F9"/>
<path d="M44.3809 20.7814L45.8892 19.5376L52.0999 35.2433L44.3809 20.7814Z" fill="#2091F9"/>
<path d="M7.464 48.06C7.08 48.06 6.7 47.956 6.324 47.748C5.948 47.532 5.648 47.116 5.424 46.5L5.124 45.72H1.764L0.804 48H0.264L3.624 40.08H3.984L6.624 46.5C6.824 46.964 7.012 47.284 7.188 47.46C7.364 47.628 7.616 47.728 7.944 47.76V48C7.8 48.04 7.64 48.06 7.464 48.06ZM1.944 45.24H4.884L3.444 41.76L1.944 45.24ZM10.7972 48.12C10.2212 48.12 9.73319 47.992 9.33319 47.736C8.94119 47.472 8.64519 47.12 8.44519 46.68C8.25319 46.232 8.15719 45.732 8.15719 45.18C8.15719 44.628 8.25319 44.132 8.44519 43.692C8.64519 43.244 8.94119 42.892 9.33319 42.636C9.73319 42.372 10.2212 42.24 10.7972 42.24C11.6772 42.24 12.2572 42.38 12.5372 42.66C12.6732 42.796 12.7572 42.964 12.7892 43.164C12.8212 43.356 12.8372 43.708 12.8372 44.22H12.5972C12.5652 43.724 12.4092 43.352 12.1292 43.104C11.8492 42.848 11.4852 42.72 11.0372 42.72C10.4612 42.72 10.0252 42.948 9.72919 43.404C9.44119 43.86 9.29719 44.452 9.29719 45.18C9.29719 45.908 9.44119 46.5 9.72919 46.956C10.0252 47.412 10.4612 47.64 11.0372 47.64C11.4452 47.64 11.7812 47.564 12.0452 47.412C12.3092 47.252 12.5532 47.008 12.7772 46.68L13.0172 46.86C12.7532 47.308 12.4412 47.632 12.0812 47.832C11.7212 48.024 11.2932 48.12 10.7972 48.12ZM15.626 48.12C15.37 48.12 15.11 48.068 14.846 47.964C14.582 47.852 14.354 47.672 14.162 47.424C13.978 47.176 13.886 46.848 13.886 46.44C13.886 45.832 14.166 45.4 14.726 45.144C15.294 44.888 16.034 44.76 16.946 44.76H17.306C17.306 43.976 17.198 43.44 16.982 43.152C16.766 42.864 16.454 42.72 16.046 42.72C15.686 42.72 15.398 42.796 15.182 42.948C14.966 43.1 14.814 43.364 14.726 43.74H14.186C14.186 43.468 14.202 43.256 14.234 43.104C14.266 42.944 14.35 42.796 14.486 42.66C14.63 42.516 14.866 42.412 15.194 42.348C15.53 42.276 15.894 42.24 16.286 42.24C16.934 42.24 17.446 42.416 17.822 42.768C18.198 43.112 18.386 43.776 18.386 44.76V48H17.786L17.366 47.46H17.306C17.162 47.644 16.95 47.8 16.67 47.928C16.39 48.056 16.042 48.12 15.626 48.12ZM16.166 47.58C16.43 47.58 16.65 47.516 16.826 47.388C17.002 47.26 17.162 47.084 17.306 46.86V45.24H16.946C16.354 45.24 15.886 45.352 15.542 45.576C15.198 45.792 15.026 46.08 15.026 46.44C15.026 46.808 15.134 47.092 15.35 47.292C15.574 47.484 15.846 47.58 16.166 47.58ZM21.9193 48.12C21.2233 48.12 20.6873 47.844 20.3113 47.292C19.9433 46.74 19.7593 46.036 19.7593 45.18C19.7593 44.324 19.9513 43.62 20.3353 43.068C20.7273 42.516 21.2953 42.24 22.0393 42.24C22.3433 42.24 22.6113 42.272 22.8433 42.336C23.0753 42.4 23.3073 42.488 23.5393 42.6V41.52C23.5393 41.112 23.4833 40.812 23.3713 40.62C23.2593 40.42 23.0353 40.32 22.6993 40.32H22.4593V40.08H23.5393C23.8353 40.08 24.0553 40.12 24.1993 40.2C24.3513 40.272 24.4593 40.408 24.5233 40.608C24.5873 40.808 24.6193 41.112 24.6193 41.52V48H24.0193L23.5993 47.46H23.5393C23.3633 47.66 23.1553 47.82 22.9153 47.94C22.6833 48.06 22.3513 48.12 21.9193 48.12ZM22.2793 47.64C22.6073 47.64 22.8553 47.58 23.0233 47.46C23.1913 47.34 23.3633 47.16 23.5393 46.92V43.08C23.2993 42.968 23.0913 42.88 22.9153 42.816C22.7393 42.752 22.5673 42.72 22.3993 42.72C21.8873 42.72 21.5073 42.944 21.2593 43.392C21.0193 43.84 20.8993 44.436 20.8993 45.18C20.8993 45.916 21.0153 46.512 21.2473 46.968C21.4793 47.416 21.8233 47.64 22.2793 47.64ZM28.5483 48.12C28.0043 48.12 27.5443 47.992 27.1683 47.736C26.7923 47.472 26.5083 47.12 26.3163 46.68C26.1243 46.232 26.0283 45.732 26.0283 45.18C26.0283 44.636 26.1243 44.14 26.3163 43.692C26.5083 43.244 26.7843 42.892 27.1443 42.636C27.5123 42.372 27.9403 42.24 28.4283 42.24C29.2363 42.24 29.8363 42.468 30.2283 42.924C30.6283 43.372 30.8283 44.024 30.8283 44.88L30.8043 45.36H27.1683C27.1683 46.032 27.3123 46.58 27.6003 47.004C27.8883 47.428 28.2843 47.64 28.7883 47.64C29.1643 47.64 29.4803 47.56 29.7363 47.4C30.0003 47.24 30.2443 47 30.4683 46.68L30.7083 46.86C30.4443 47.3 30.1363 47.62 29.7843 47.82C29.4323 48.02 29.0203 48.12 28.5483 48.12ZM29.6883 44.88C29.6883 44.176 29.5843 43.64 29.3763 43.272C29.1683 42.904 28.8523 42.72 28.4283 42.72C28.1883 42.72 27.9723 42.816 27.7803 43.008C27.5883 43.192 27.4363 43.448 27.3243 43.776C27.2203 44.104 27.1683 44.472 27.1683 44.88H29.6883ZM32.3917 43.8C32.3917 43.392 32.3357 43.092 32.2237 42.9C32.1117 42.7 31.8877 42.6 31.5517 42.6H31.3117V42.36H32.3917C32.6877 42.36 32.9117 42.4 33.0637 42.48C33.2237 42.56 33.3397 42.68 33.4117 42.84H33.4717C33.6397 42.672 33.8557 42.532 34.1197 42.42C34.3917 42.3 34.6957 42.24 35.0317 42.24C35.3677 42.24 35.6557 42.304 35.8957 42.432C36.1357 42.552 36.3277 42.768 36.4717 43.08C36.6797 42.816 36.9437 42.612 37.2637 42.468C37.5917 42.316 37.9277 42.24 38.2717 42.24C38.7837 42.24 39.1917 42.4 39.4957 42.72C39.7997 43.04 39.9517 43.6 39.9517 44.4V48H38.8717V44.4C38.8717 43.824 38.7917 43.412 38.6317 43.164C38.4717 42.908 38.2317 42.78 37.9117 42.78C37.6877 42.78 37.4517 42.864 37.2037 43.032C36.9557 43.192 36.7717 43.368 36.6517 43.56C36.6917 43.68 36.7117 43.96 36.7117 44.4V48H35.6317V44.4C35.6317 43.824 35.5517 43.412 35.3917 43.164C35.2317 42.908 34.9917 42.78 34.6717 42.78C34.2477 42.78 33.8477 42.992 33.4717 43.416V48H32.3917V43.8ZM42.2695 41.64C42.0855 41.64 41.9255 41.564 41.7895 41.412C41.6615 41.26 41.5975 41.08 41.5975 40.872C41.5975 40.704 41.6455 40.572 41.7415 40.476C41.8455 40.38 41.9815 40.332 42.1495 40.332C42.3335 40.332 42.4895 40.408 42.6175 40.56C42.7535 40.712 42.8215 40.892 42.8215 41.1C42.8215 41.268 42.7695 41.4 42.6655 41.496C42.5695 41.592 42.4375 41.64 42.2695 41.64ZM41.8135 43.8C41.8135 43.392 41.7575 43.092 41.6455 42.9C41.5335 42.7 41.3095 42.6 40.9735 42.6H40.7335V42.36H41.8135C42.1095 42.36 42.3295 42.4 42.4735 42.48C42.6255 42.552 42.7335 42.688 42.7975 42.888C42.8615 43.088 42.8935 43.392 42.8935 43.8V48H41.8135V43.8ZM46.9027 48.12C46.3267 48.12 45.8387 47.992 45.4387 47.736C45.0467 47.472 44.7507 47.12 44.5507 46.68C44.3587 46.232 44.2627 45.732 44.2627 45.18C44.2627 44.628 44.3587 44.132 44.5507 43.692C44.7507 43.244 45.0467 42.892 45.4387 42.636C45.8387 42.372 46.3267 42.24 46.9027 42.24C47.7827 42.24 48.3627 42.38 48.6427 42.66C48.7787 42.796 48.8627 42.964 48.8947 43.164C48.9267 43.356 48.9427 43.708 48.9427 44.22H48.7027C48.6707 43.724 48.5147 43.352 48.2347 43.104C47.9547 42.848 47.5907 42.72 47.1427 42.72C46.5667 42.72 46.1307 42.948 45.8347 43.404C45.5467 43.86 45.4027 44.452 45.4027 45.18C45.4027 45.908 45.5467 46.5 45.8347 46.956C46.1307 47.412 46.5667 47.64 47.1427 47.64C47.5507 47.64 47.8867 47.564 48.1507 47.412C48.4147 47.252 48.6587 47.008 48.8827 46.68L49.1227 46.86C48.8587 47.308 48.5467 47.632 48.1867 47.832C47.8267 48.024 47.3987 48.12 46.9027 48.12ZM56.9874 48.06C56.6034 48.06 56.2234 47.956 55.8474 47.748C55.4714 47.532 55.1714 47.116 54.9474 46.5L54.6474 45.72H51.2874L50.3274 48H49.7874L53.1474 40.08H53.5074L56.1474 46.5C56.3474 46.964 56.5354 47.284 56.7114 47.46C56.8874 47.628 57.1394 47.728 57.4674 47.76V48C57.3234 48.04 57.1634 48.06 56.9874 48.06ZM51.4674 45.24H54.4074L52.9674 41.76L51.4674 45.24ZM59.6726 48.12C59.2246 48.12 58.8726 47.992 58.6166 47.736C58.3606 47.48 58.2326 47.088 58.2326 46.56V42.84H57.3926V42.36H58.2326V41.28L58.8326 40.56H59.3126V42.36H60.7526V42.84H59.3126V46.56C59.3126 47.28 59.5926 47.64 60.1526 47.64C60.3446 47.64 60.5046 47.62 60.6326 47.58C60.7686 47.54 60.9086 47.48 61.0526 47.4L61.1726 47.64C60.9886 47.776 60.7846 47.892 60.5606 47.988C60.3366 48.076 60.0406 48.12 59.6726 48.12ZM62.1073 41.52C62.1073 41.112 62.0513 40.812 61.9393 40.62C61.8273 40.42 61.6033 40.32 61.2673 40.32H61.0273V40.08H62.1073C62.4033 40.08 62.6233 40.12 62.7673 40.2C62.9193 40.272 63.0273 40.408 63.0913 40.608C63.1553 40.808 63.1873 41.112 63.1873 41.52V48H62.1073V41.52ZM66.3096 48.12C66.0536 48.12 65.7936 48.068 65.5296 47.964C65.2656 47.852 65.0376 47.672 64.8456 47.424C64.6616 47.176 64.5696 46.848 64.5696 46.44C64.5696 45.832 64.8496 45.4 65.4096 45.144C65.9776 44.888 66.7176 44.76 67.6296 44.76H67.9896C67.9896 43.976 67.8816 43.44 67.6656 43.152C67.4496 42.864 67.1376 42.72 66.7296 42.72C66.3696 42.72 66.0816 42.796 65.8656 42.948C65.6496 43.1 65.4976 43.364 65.4096 43.74H64.8696C64.8696 43.468 64.8856 43.256 64.9176 43.104C64.9496 42.944 65.0336 42.796 65.1696 42.66C65.3136 42.516 65.5496 42.412 65.8776 42.348C66.2136 42.276 66.5776 42.24 66.9696 42.24C67.6176 42.24 68.1296 42.416 68.5056 42.768C68.8816 43.112 69.0696 43.776 69.0696 44.76V48H68.4696L68.0496 47.46H67.9896C67.8456 47.644 67.6336 47.8 67.3536 47.928C67.0736 48.056 66.7256 48.12 66.3096 48.12ZM66.8496 47.58C67.1136 47.58 67.3336 47.516 67.5096 47.388C67.6856 47.26 67.8456 47.084 67.9896 46.86V45.24H67.6296C67.0376 45.24 66.5696 45.352 66.2256 45.576C65.8816 45.792 65.7096 46.08 65.7096 46.44C65.7096 46.808 65.8176 47.092 66.0336 47.292C66.2576 47.484 66.5296 47.58 66.8496 47.58ZM72.6269 48.12C71.7069 48.12 71.0869 47.96 70.7669 47.64C70.6309 47.504 70.5469 47.352 70.5149 47.184C70.4829 47.008 70.4669 46.74 70.4669 46.38H70.7069C70.7789 46.78 70.9509 47.092 71.2229 47.316C71.5029 47.532 71.8909 47.64 72.3869 47.64C72.8269 47.64 73.1549 47.564 73.3709 47.412C73.5949 47.26 73.7069 47.056 73.7069 46.8C73.7069 46.568 73.6189 46.368 73.4429 46.2C73.2749 46.032 73.0029 45.872 72.6269 45.72L71.9069 45.42C71.4269 45.228 71.0669 45.004 70.8269 44.748C70.5869 44.492 70.4669 44.176 70.4669 43.8C70.4669 43.312 70.6509 42.932 71.0189 42.66C71.3869 42.38 71.8629 42.24 72.4469 42.24C73.3269 42.24 73.9269 42.4 74.2469 42.72C74.3829 42.856 74.4669 43.008 74.4989 43.176C74.5309 43.344 74.5469 43.612 74.5469 43.98H74.3069C74.2429 43.58 74.0749 43.272 73.8029 43.056C73.5309 42.832 73.1589 42.72 72.6869 42.72C72.3109 42.72 72.0149 42.8 71.7989 42.96C71.5909 43.112 71.4869 43.312 71.4869 43.56C71.4869 43.976 71.8069 44.316 72.4469 44.58L73.1669 44.88C73.7109 45.104 74.1069 45.344 74.3549 45.6C74.6029 45.848 74.7269 46.168 74.7269 46.56C74.7269 47.048 74.5309 47.432 74.1389 47.712C73.7469 47.984 73.2429 48.12 72.6269 48.12Z" fill="#FEFEFE"/>
</svg>
